<?xml version="1.0" encoding="UTF-8" standalone="no"?>
<!-- Created with Inkscape (http://www.inkscape.org/) -->

<svg
   xmlns:dc="http://purl.org/dc/elements/1.1/"
   xmlns:cc="http://creativecommons.org/ns#"
   xmlns:rdf="http://www.w3.org/1999/02/22-rdf-syntax-ns#"
   xmlns:svg="http://www.w3.org/2000/svg"
   xmlns="http://www.w3.org/2000/svg"
   xmlns:sodipodi="http://sodipodi.sourceforge.net/DTD/sodipodi-0.dtd"
   xmlns:inkscape="http://www.inkscape.org/namespaces/inkscape"
   width="81.07019"
   height="144.76543"
   id="svg2831"
   version="1.1"
   inkscape:version="0.47 r22583"
   sodipodi:docname="dog.svg">
  <defs
     id="defs2833">
    <inkscape:perspective
       sodipodi:type="inkscape:persp3d"
       inkscape:vp_x="0 : 526.18109 : 1"
       inkscape:vp_y="0 : 1000 : 0"
       inkscape:vp_z="744.09448 : 526.18109 : 1"
       inkscape:persp3d-origin="372.04724 : 350.78739 : 1"
       id="perspective2839" />
    <inkscape:perspective
       id="perspective2826"
       inkscape:persp3d-origin="0.5 : 0.33333333 : 1"
       inkscape:vp_z="1 : 0.5 : 1"
       inkscape:vp_y="0 : 1000 : 0"
       inkscape:vp_x="0 : 0.5 : 1"
       sodipodi:type="inkscape:persp3d" />
    <inkscape:perspective
       id="perspective2879"
       inkscape:persp3d-origin="0.5 : 0.33333333 : 1"
       inkscape:vp_z="1 : 0.5 : 1"
       inkscape:vp_y="0 : 1000 : 0"
       inkscape:vp_x="0 : 0.5 : 1"
       sodipodi:type="inkscape:persp3d" />
  </defs>
  <sodipodi:namedview
     id="base"
     pagecolor="#ffffff"
     bordercolor="#666666"
     borderopacity="1.0"
     inkscape:pageopacity="0.0"
     inkscape:pageshadow="2"
     inkscape:zoom="0.35"
     inkscape:cx="696.23679"
     inkscape:cy="-428.20567"
     inkscape:document-units="px"
     inkscape:current-layer="layer1"
     showgrid="false"
     inkscape:window-width="1024"
     inkscape:window-height="575"
     inkscape:window-x="-5"
     inkscape:window-y="3"
     inkscape:window-maximized="1" />
  <metadata
     id="metadata2836">
    <rdf:RDF>
      <cc:Work
         rdf:about="">
        <dc:format>image/svg+xml</dc:format>
        <dc:type
           rdf:resource="http://purl.org/dc/dcmitype/StillImage" />
        <dc:title></dc:title>
      </cc:Work>
    </rdf:RDF>
  </metadata>
  <g
     inkscape:label="Layer 1"
     inkscape:groupmode="layer"
     id="layer1"
     transform="translate(321.23679,40.608909)">
    <g
       id="g3909"
       transform="matrix(0.45887556,0,0,0.45887556,-1048.4084,-47.794797)">
      <path
         sodipodi:nodetypes="csscssssscccsccccccccscscccsccccscccssccccc"
         id="path3905"
         d="m 1654.4158,20.099936 c 9.3755,0 19.4722,2.88477 25.9629,10.817889 6.4907,7.933118 5.0483,28.12651 2.8848,30.290088 -2.1636,2.163578 -24.5206,28.12651 -24.5206,28.12651 0,0 19.8328,24.469297 22.7176,54.038187 0.3204,3.28379 1.044,4.4299 1.1706,7.49924 0.044,1.06764 2.9824,-0.88541 5.867,-3.43318 2.8989,-2.5603 7.8738,-0.0567 9.8919,0.87538 1.9496,0.90049 -0.3506,17.02373 -0.3476,17.37875 0,0.35139 -0.6465,4.42149 -2.6072,5.65933 -3.4564,-0.0463 -10.2554,-0.4228 -13.5392,-1.28285 -0.2288,19.54783 -3.6807,32.49238 -3.6807,32.49238 0,0 23.7994,34.61724 27.4053,39.66559 3.606,5.04835 6.4908,33.17486 6.4908,33.17486 l 8.2386,-5.20114 c 0,0 5.8857,22.47308 13.8188,29.68501 4.7427,-2.89084 0.6785,-1.71128 7.8905,-4.59605 10.5726,-3.86389 16.8206,1.84455 18.7936,12.98146 -11.5445,6.90936 -42.9329,19.33123 -52.7632,19.36215 -2.8847,-12.98146 -22.6625,-47.90428 -22.6625,-47.90428 l 5.0484,-1.44238 c 0,0 -12.2603,-21.63578 -15.145,-25.96293 -2.8848,-4.32716 -34.6173,-31.01129 -34.6173,-31.01129 0,0 -7.9331,47.59871 -9.3755,51.20468 -1.4424,3.60596 -15.145,19.4722 -15.145,19.4722 l 4.3271,0 -2.8848,19.4722 c 0,0 9.3755,-2.88477 14.4239,1.44238 5.0483,4.32716 0.7212,17.4933 0.7212,17.4933 0,0 -33.8574,1.11222 -46.1563,-1.44239 -2.288,-14.49278 -0.1533,-30.24013 -1.4424,-46.341 l 6.4907,3.60597 c 0,0 15.1451,-39.6656 18.751,-49.76229 3.606,-10.0967 5.7696,-32.45367 5.7696,-32.45367 l -8.6544,-3.60596 7.212,-40.38678 c 0,0 -20.1934,-9.37551 -19.4722,-12.26028 0.7212,-2.88477 2.1636,-13.70266 9.3755,-23.07816 7.2119,-9.3755 11.5391,-24.52055 11.5391,-24.52055 l 8.6543,-27.405316 c -5.3239,-16.702652 -15.1384,-45.994193 5.7695,-56.253021 7.9331,-1.442385 23.7994,2.163578 23.7994,3.605963 l -2e-4,0 z"
         style="fill:#000000;stroke:#000000;stroke-width:1px;stroke-linecap:butt;stroke-linejoin:miter;stroke-opacity:1" />
      <path
         id="path3907"
         d="M 1701.2271,27.537848 1668.5896,327.39442"
         style="fill:none;stroke:#000000;stroke-width:6;stroke-linecap:butt;stroke-linejoin:miter;stroke-miterlimit:4;stroke-opacity:1;stroke-dasharray:none" />
    </g>
  </g>
</svg>
